<svg id="visual" viewBox="0 0 900 600" width="900" height="600" xmlns="http://www.w3.org/2000/svg" xmlns:xlink="http://www.w3.org/1999/xlink" version="1.1"><path d="M0 387L21.5 380.7C43 374.3 86 361.7 128.8 371C171.7 380.3 214.3 411.7 257.2 426C300 440.3 343 437.7 385.8 433C428.7 428.3 471.3 421.7 514.2 409.3C557 397 600 379 642.8 373.7C685.7 368.3 728.3 375.7 771.2 385.3C814 395 857 407 878.5 413L900 419L900 601L878.5 601C857 601 814 601 771.2 601C728.3 601 685.7 601 642.8 601C600 601 557 601 514.2 601C471.3 601 428.7 601 385.8 601C343 601 300 601 257.2 601C214.3 601 171.7 601 128.8 601C86 601 43 601 21.5 601L0 601Z" fill="#a79cdd"></path><path d="M0 394L21.5 395.3C43 396.7 86 399.3 128.8 403.5C171.7 407.7 214.3 413.3 257.2 421.5C300 429.7 343 440.3 385.8 448.8C428.7 457.3 471.3 463.7 514.2 454.3C557 445 600 420 642.8 413C685.7 406 728.3 417 771.2 426.3C814 435.7 857 443.3 878.5 447.2L900 451L900 601L878.5 601C857 601 814 601 771.2 601C728.3 601 685.7 601 642.8 601C600 601 557 601 514.2 601C471.3 601 428.7 601 385.8 601C343 601 300 601 257.2 601C214.3 601 171.7 601 128.8 601C86 601 43 601 21.5 601L0 601Z" fill="#9487d5"></path><path d="M0 498L21.5 500C43 502 86 506 128.8 502.5C171.7 499 214.3 488 257.2 483C300 478 343 479 385.8 477C428.7 475 471.3 470 514.2 464.5C557 459 600 453 642.8 455.5C685.7 458 728.3 469 771.2 475.5C814 482 857 484 878.5 485L900 486L900 601L878.5 601C857 601 814 601 771.2 601C728.3 601 685.7 601 642.8 601C600 601 557 601 514.2 601C471.3 601 428.7 601 385.8 601C343 601 300 601 257.2 601C214.3 601 171.7 601 128.8 601C86 601 43 601 21.5 601L0 601Z" fill="#8072cd"></path><path d="M0 535L21.5 531.5C43 528 86 521 128.8 521.8C171.7 522.7 214.3 531.3 257.2 526.8C300 522.3 343 504.7 385.8 496.2C428.7 487.7 471.3 488.3 514.2 493.2C557 498 600 507 642.8 513.7C685.7 520.3 728.3 524.7 771.2 521.2C814 517.7 857 506.3 878.5 500.7L900 495L900 601L878.5 601C857 601 814 601 771.2 601C728.3 601 685.7 601 642.8 601C600 601 557 601 514.2 601C471.3 601 428.7 601 385.8 601C343 601 300 601 257.2 601C214.3 601 171.7 601 128.8 601C86 601 43 601 21.5 601L0 601Z" fill="#6e61b3"></path><path d="M0 538L21.5 541C43 544 86 550 128.8 556C171.7 562 214.3 568 257.2 563C300 558 343 542 385.8 537C428.7 532 471.3 538 514.2 545.8C557 553.7 600 563.3 642.8 563C685.7 562.7 728.3 552.3 771.2 551C814 549.7 857 557.3 878.5 561.2L900 565L900 601L878.5 601C857 601 814 601 771.2 601C728.3 601 685.7 601 642.8 601C600 601 557 601 514.2 601C471.3 601 428.7 601 385.8 601C343 601 300 601 257.2 601C214.3 601 171.7 601 128.8 601C86 601 43 601 21.5 601L0 601Z" fill="#5c5099"></path></svg>