<svg width="627" height="152" viewBox="0 0 627 152" fill="none" xmlns="http://www.w3.org/2000/svg">
<g filter="url(#filter0_d_368_1125)">
<path d="M104 45.4082V114.408H95.5357V69.8397C95.5357 68.0583 95.6071 66.1337 95.75 64.0659L80.1429 103.242C79.4048 105.119 78.2738 106.058 76.75 106.058H75.3929C73.869 106.058 72.7381 105.119 72 103.242L56.2143 63.9227C56.2857 64.9725 56.3452 66.0064 56.3929 67.0244C56.4405 68.0424 56.4643 68.9808 56.4643 69.8397V114.408H48V45.4082H55.25C55.6786 45.4082 56.0476 45.4241 56.3571 45.4559C56.6667 45.4877 56.9405 45.5673 57.1786 45.6945C57.4405 45.8218 57.6667 46.0285 57.8571 46.3148C58.0714 46.6011 58.2738 46.9829 58.4643 47.4601L73.9286 85.7775C74.3333 86.7955 74.7024 87.8453 75.0357 88.9269C75.3929 90.0085 75.7381 91.1219 76.0714 92.2671C76.4048 91.0901 76.75 89.9608 77.1071 88.8792C77.4643 87.7657 77.8452 86.7 78.25 85.6821L93.5 47.4601C93.6905 46.9829 93.8929 46.6011 94.1071 46.3148C94.3214 46.0285 94.5476 45.8218 94.7857 45.6945C95.0476 45.5673 95.3333 45.4877 95.6429 45.4559C95.9524 45.4241 96.3214 45.4082 96.75 45.4082H104Z" fill="#F78F3F"/>
</g>
<g filter="url(#filter1_d_368_1125)">
<path d="M126.08 45L104.528 114.408H92.8639L77.6959 66.984C77.2799 65.832 76.8959 64.424 76.5439 62.76C76.3519 63.56 76.1599 64.312 75.9679 65.016C75.7759 65.72 75.5679 66.376 75.3439 66.984L60.0319 114.408H48.3199L26.8159 45H37.6159C38.7359 45 39.6639 45.272 40.3999 45.816C41.1679 46.328 41.6799 47.032 41.9359 47.928L53.7439 89.448C53.9999 90.472 54.2399 91.592 54.4639 92.808C54.7199 93.992 54.9759 95.24 55.2319 96.552C55.4879 95.208 55.7599 93.944 56.0479 92.76C56.3679 91.576 56.7039 90.472 57.0559 89.448L70.6879 47.928C70.9439 47.192 71.4399 46.52 72.1759 45.912C72.9439 45.304 73.8719 45 74.9599 45H78.7519C79.8719 45 80.7839 45.272 81.4879 45.816C82.1919 46.36 82.7199 47.064 83.0719 47.928L96.6559 89.448C97.3279 91.432 97.9359 93.72 98.4799 96.312C98.8959 93.784 99.3599 91.496 99.8719 89.448L111.68 47.928C111.872 47.128 112.352 46.44 113.12 45.864C113.92 45.288 114.864 45 115.952 45H126.08Z" fill="#518CCA"/>
</g>
<g filter="url(#filter2_d_368_1125)">
<path fill-rule="evenodd" clip-rule="evenodd" d="M38.3801 10.6101C52.9973 1.65265 70.3309 -1.79522 87.2633 0.886602C104.196 3.56842 119.615 12.2039 130.749 25.2399C141.883 38.2759 148 54.8567 148 72.0002C148 75.3139 145.314 78.0002 142 78.0002C138.686 78.0002 136 75.3139 136 72.0002C136 57.714 130.903 43.8966 121.624 33.0333C112.346 22.17 99.4964 14.9737 85.3861 12.7389C71.2758 10.504 56.8311 13.3772 44.6501 20.8418C32.4691 28.3063 23.3513 39.8722 18.9366 53.4591C14.5219 67.0461 15.1002 81.7624 20.5672 94.9612C26.0343 108.16 36.0315 118.975 48.7606 125.461C61.4897 131.946 76.1153 133.677 90.0067 130.342C103.898 127.007 116.144 118.825 124.541 107.267C126.489 104.586 130.241 103.992 132.922 105.94C135.603 107.888 136.197 111.64 134.249 114.321C124.173 128.19 109.478 138.009 92.8081 142.011C76.1383 146.013 58.5876 143.936 43.3127 136.153C28.0378 128.37 16.0412 115.392 9.48069 99.5534C2.92018 83.7149 2.22633 66.0553 7.52394 49.7509C12.8216 33.4466 23.7629 19.5675 38.3801 10.6101Z" fill="#E23636"/>
</g>
<path d="M275.688 65.0625V88.875C275.688 89.9167 276.229 90.4583 277.312 90.5H299.188C299.979 90.4583 300.667 90.125 301.25 89.5C301.833 88.8333 302.25 88.0833 302.5 87.25C302.792 86.375 302.938 85.5 302.938 84.625C302.938 83.7917 302.792 82.9583 302.5 82.125C302.25 81.25 301.833 80.5 301.25 79.875C300.667 79.2083 299.979 78.875 299.188 78.875H283.188C282.021 78.875 281.021 78.4792 280.188 77.6875C279.396 76.8542 279 75.8542 279 74.6875C279 73.5208 279.417 72.5417 280.25 71.75C281.042 70.9167 282.021 70.5 283.188 70.5H298.938C301.854 70.5417 304.25 71.375 306.125 73C308.042 74.5833 309.396 76.3958 310.188 78.4375C311.021 80.4375 311.438 82.5208 311.438 84.6875C311.438 86.7708 311.021 88.8333 310.188 90.875C309.354 92.875 308 94.6875 306.125 96.3125C304.25 97.8958 301.479 98.75 297.812 98.875H271.562C270.396 98.875 269.396 98.5 268.562 97.75C267.729 96.9583 267.292 95.9792 267.25 94.8125V65.0625C267.25 63.8958 267.667 62.9375 268.5 62.1875C269.375 61.3958 270.396 61 271.562 61C274.062 61.2083 275.438 62.5625 275.688 65.0625Z" fill="#F78F3F"/>
<path d="M233.25 98.875C229.583 98.75 226.812 97.8958 224.938 96.3125C223.062 94.6875 221.708 92.875 220.875 90.875C220.042 88.8333 219.625 86.7708 219.625 84.6875C219.625 82.5208 220.021 80.4375 220.812 78.4375C221.646 76.3958 223 74.5833 224.875 73C226.792 71.375 229.208 70.5417 232.125 70.5H255.875C257.042 70.5 258.021 70.8958 258.812 71.6875C259.646 72.4375 260.062 73.3542 260.062 74.4375C260.062 75.5625 259.646 76.5208 258.812 77.3125C258.021 78.0625 257.042 78.4375 255.875 78.4375H232.5C231.583 78.4375 230.771 78.75 230.062 79.375C229.396 80 228.896 80.8125 228.562 81.8125C228.271 82.8125 228.125 83.7917 228.125 84.75C228.125 85.7917 228.271 86.8125 228.562 87.8125C228.896 88.8125 229.396 89.625 230.062 90.25C230.771 90.8333 231.583 91.1458 232.5 91.1875H255.875C257.042 91.1875 258.021 91.5625 258.812 92.3125C259.646 93.0625 260.062 93.9583 260.062 95C260.062 96.0833 259.646 97 258.812 97.75C258.021 98.5 257.042 98.875 255.875 98.875H233.25ZM259.312 84.5625C259.312 85.3542 258.958 86.0417 258.25 86.625C257.625 87.1667 256.833 87.4375 255.875 87.4375H235.438C234.479 87.4375 233.667 87.1667 233 86.625C232.333 86.0417 232 85.3542 232 84.5625C232 83.8125 232.333 83.1458 233 82.5625C233.667 82.0208 234.479 81.75 235.438 81.75H255.875C256.833 81.75 257.646 82.0417 258.312 82.625C258.979 83.1667 259.312 83.8125 259.312 84.5625Z" fill="#F78F3F"/>
<path d="M181.113 100C179.704 100 178.296 99.6439 176.887 98.9316C175.52 98.2194 174.194 97.1807 172.91 95.8156C171.625 94.3911 170.507 92.5215 169.554 90.2067C168.601 87.8919 168.083 85.132 168 81.9269V49.787C168 48.1251 168.414 46.7599 169.243 45.6916C170.113 44.5639 171.128 44 172.288 44C174.774 44.2968 176.121 46.2258 176.328 49.787V81.2146C176.369 82.6391 176.576 83.8559 176.949 84.8649C177.322 85.8145 177.736 86.5861 178.192 87.1797C178.648 87.7138 179.104 88.1293 179.559 88.4261C180.056 88.6635 180.554 88.7822 181.051 88.7822C181.548 88.7822 182.045 88.6635 182.542 88.4261C183.04 88.1293 183.516 87.7138 183.972 87.1797C184.427 86.5861 184.842 85.8145 185.215 84.8649C185.588 83.8559 185.774 82.6391 185.774 81.2146V49.787C185.774 48.1251 186.188 46.7599 187.017 45.6916C187.887 44.5639 188.902 44 190.062 44C192.548 44.2968 193.915 46.2258 194.164 49.787V81.2146C194.205 82.6391 194.412 83.8262 194.785 84.7758C195.158 85.7848 195.573 86.5861 196.028 87.1797C196.484 87.7138 196.94 88.1293 197.395 88.4261C197.893 88.6635 198.39 88.7822 198.887 88.7822C199.384 88.7822 199.881 88.6635 200.379 88.4261C200.876 88.1293 201.352 87.7138 201.808 87.1797C202.264 86.5861 202.678 85.8145 203.051 84.8649C203.424 83.8559 203.61 82.6391 203.61 81.2146V49.787C203.61 48.1251 204.024 46.7599 204.853 45.6916C205.723 44.5639 206.738 44 207.898 44C210.384 44.2968 211.751 46.2258 212 49.787V81.9269C212 85.132 211.503 87.8919 210.508 90.2067C209.556 92.5215 208.437 94.3911 207.153 95.8156C205.91 97.1807 204.584 98.2194 203.175 98.9316C201.808 99.6439 200.399 100 198.949 100C197.54 100 196.132 99.6439 194.723 98.9316C193.356 98.2194 192.03 97.151 190.746 95.7265C190.497 95.4891 190.269 95.222 190.062 94.9253C189.814 95.222 189.586 95.4891 189.379 95.7265C188.094 97.151 186.748 98.2194 185.339 98.9316C183.972 99.6439 182.563 100 181.113 100Z" fill="#F78F3F"/>
<path d="M625.875 74.125C625.875 75.1667 625.458 76.0417 624.625 76.75C623.833 77.4167 622.854 77.75 621.688 77.75H595.25C594.708 77.75 594.271 77.8542 593.938 78.0625C593.604 78.2708 593.354 78.5 593.188 78.75C593.021 78.9583 592.938 79.1458 592.938 79.3125C592.938 79.5208 593.021 79.75 593.188 80C593.354 80.2083 593.604 80.4167 593.938 80.625C594.271 80.7917 594.708 80.8958 595.25 80.9375H615.688C618.312 80.9792 620.479 81.5 622.188 82.5C623.896 83.4583 625.104 84.6042 625.812 85.9375C626.562 87.2292 626.938 88.5417 626.938 89.875C626.938 91.1667 626.562 92.4792 625.812 93.8125C625.062 95.1042 623.833 96.25 622.125 97.25C620.458 98.2083 618.312 98.6875 615.688 98.6875C615.229 98.7292 614.896 98.75 614.688 98.75H590.438C589.271 98.75 588.271 98.4167 587.438 97.75C586.646 97.0417 586.25 96.1875 586.25 95.1875C586.25 94.1458 586.667 93.2708 587.5 92.5625C588.292 91.8958 589.271 91.5625 590.438 91.5625H616.188C616.812 91.6042 617.312 91.5208 617.688 91.3125C618.104 91.1042 618.417 90.875 618.625 90.625C618.833 90.375 618.938 90.125 618.938 89.875C618.938 89.75 618.833 89.5417 618.625 89.25C618.417 88.9167 618.104 88.6667 617.688 88.5C617.312 88.2917 616.812 88.1667 616.188 88.125H595.688C593.271 88.0833 591.271 87.5833 589.688 86.625C588.104 85.625 586.979 84.4792 586.312 83.1875C585.646 81.8958 585.312 80.6042 585.312 79.3125C585.312 78.0208 585.646 76.75 586.312 75.5C587.021 74.2083 588.146 73.1042 589.688 72.1875C591.271 71.2292 593.271 70.7083 595.688 70.625C596.104 70.5833 596.417 70.5625 596.625 70.5625H621.688C622.854 70.5625 623.833 70.9167 624.625 71.625C625.458 72.2917 625.875 73.125 625.875 74.125Z" fill="#518CCA"/>
<path d="M574.125 61C575.25 61.0417 576.208 61.4583 577 62.25C577.792 63 578.208 63.9375 578.25 65.0625V95.6875C578 98.1875 576.625 99.5417 574.125 99.75C572.958 99.75 571.938 99.375 571.062 98.625C570.229 97.8333 569.812 96.8542 569.812 95.6875V65.0625C569.854 63.8958 570.292 62.9375 571.125 62.1875C571.958 61.3958 572.958 61 574.125 61Z" fill="#518CCA"/>
<path d="M535.812 98.875C532.146 98.75 529.375 97.8958 527.5 96.3125C525.625 94.6875 524.271 92.875 523.438 90.875C522.604 88.8333 522.188 86.7708 522.188 84.6875C522.188 82.5208 522.583 80.4375 523.375 78.4375C524.208 76.3958 525.562 74.5833 527.438 73C529.354 71.375 531.771 70.5417 534.688 70.5H558.438C559.604 70.5 560.583 70.8958 561.375 71.6875C562.208 72.4375 562.625 73.3542 562.625 74.4375C562.625 75.5625 562.208 76.5208 561.375 77.3125C560.583 78.0625 559.604 78.4375 558.438 78.4375H535.062C534.146 78.4375 533.333 78.75 532.625 79.375C531.958 80 531.458 80.8125 531.125 81.8125C530.833 82.8125 530.688 83.7917 530.688 84.75C530.688 85.7917 530.833 86.8125 531.125 87.8125C531.458 88.8125 531.958 89.625 532.625 90.25C533.333 90.8333 534.146 91.1458 535.062 91.1875H558.438C559.604 91.1875 560.583 91.5625 561.375 92.3125C562.208 93.0625 562.625 93.9583 562.625 95C562.625 96.0833 562.208 97 561.375 97.75C560.583 98.5 559.604 98.875 558.438 98.875H535.812ZM561.875 84.5625C561.875 85.3542 561.521 86.0417 560.812 86.625C560.188 87.1667 559.396 87.4375 558.438 87.4375H538C537.042 87.4375 536.229 87.1667 535.562 86.625C534.896 86.0417 534.562 85.3542 534.562 84.5625C534.562 83.8125 534.896 83.1458 535.562 82.5625C536.229 82.0208 537.042 81.75 538 81.75H558.438C559.396 81.75 560.208 82.0417 560.875 82.625C561.542 83.1667 561.875 83.8125 561.875 84.5625Z" fill="#518CCA"/>
<path d="M487.312 95.5625C485.187 92.6875 483.062 88.9167 480.937 84.25L476.875 75.5C476.667 75.0417 476.542 74.5417 476.5 74C476.417 72.8333 476.771 71.8333 477.562 71C478.354 70.1667 479.396 69.75 480.687 69.75C482.104 69.75 483.146 70.0417 483.812 70.625C484.521 71.1667 485.083 71.875 485.5 72.75L488.437 80C489.187 81.7083 489.917 83.3333 490.625 84.875C491.375 86.375 492.208 87.75 493.125 89C494.083 90.25 495.146 90.9167 496.312 91C497.437 90.9167 498.5 90.25 499.5 89C500.375 87.75 501.167 86.375 501.875 84.875C502.625 83.3333 503.375 81.7083 504.125 80L507.062 72.75C507.479 71.875 508.021 71.1667 508.687 70.625C509.396 70.0417 510.458 69.75 511.875 69.75C513.167 69.75 514.208 70.1667 515 71C515.792 71.8333 516.146 72.8333 516.062 74C516.021 74.5417 515.896 75.0417 515.687 75.5L511.625 84.25C509.5 88.9167 507.375 92.6875 505.25 95.5625C503.208 98.3958 500.229 99.8333 496.312 99.875C492.354 99.8333 489.354 98.3958 487.312 95.5625Z" fill="#518CCA"/>
<path d="M432.312 78.375C433.104 76.375 434.438 74.5833 436.312 73C438.229 71.375 440.646 70.5417 443.562 70.5H467.062C468.229 70.5 469.208 70.9167 470 71.75C470.833 72.5417 471.25 73.5208 471.25 74.6875C471.25 75.8542 470.833 76.8542 470 77.6875C469.208 78.4792 468.229 78.875 467.062 78.875H443.312C442.521 78.875 441.833 79.2083 441.25 79.875C440.667 80.5 440.208 81.25 439.875 82.125C439.583 83 439.438 83.8333 439.438 84.625V95.5625C439.188 98.0625 437.812 99.4167 435.312 99.625C434.146 99.625 433.125 99.25 432.25 98.5C431.417 97.7083 431 96.7292 431 95.5625V84.6875H431.062C431.062 82.5208 431.479 80.4167 432.312 78.375Z" fill="#518CCA"/>
<path d="M414.5 95.5625V80.5C414.5 79.4583 413.958 78.9167 412.875 78.875H391C390.208 78.9167 389.521 79.2708 388.938 79.9375C388.354 80.5625 387.917 81.3125 387.625 82.1875C387.375 83.0208 387.25 83.875 387.25 84.75C387.25 85.5833 387.375 86.4375 387.625 87.3125C387.917 88.1458 388.354 88.8958 388.938 89.5625C389.521 90.1875 390.208 90.5 391 90.5H407C408.167 90.5 409.146 90.9167 409.938 91.75C410.771 92.5417 411.188 93.5208 411.188 94.6875C411.188 95.8542 410.771 96.8333 409.938 97.625C409.146 98.4583 408.167 98.875 407 98.875H391.25C388.333 98.8333 385.917 98.0208 384 96.4375C382.125 94.8125 380.771 93 379.938 91C379.146 88.9583 378.75 86.8542 378.75 84.6875C378.75 82.6042 379.167 80.5625 380 78.5625C380.833 76.5208 382.188 74.7083 384.062 73.125C385.938 71.5 388.708 70.625 392.375 70.5H418.625C419.792 70.5 420.792 70.8958 421.625 71.6875C422.458 72.4375 422.896 73.3958 422.938 74.5625V95.5625C422.938 96.7292 422.5 97.7083 421.625 98.5C420.792 99.25 419.792 99.625 418.625 99.625C416.125 99.4167 414.75 98.0625 414.5 95.5625Z" fill="#518CCA"/>
<path d="M340.55 44C342.001 44 343.409 44.3561 344.776 45.0684C346.185 45.7806 347.532 46.8193 348.816 48.1844C349.023 48.4812 349.251 48.778 349.5 49.0747C349.707 48.778 349.935 48.4812 350.183 48.1844C351.468 46.8193 352.793 45.7806 354.161 45.0684C355.569 44.3561 356.978 44 358.387 44C359.837 44 361.245 44.3561 362.613 45.0684C364.021 45.7806 365.347 46.849 366.59 48.2734C367.874 49.6386 368.993 51.4785 369.946 53.7933C370.94 56.1081 371.437 58.868 371.437 62.0731V94.213C371.189 97.7742 369.822 99.7032 367.336 100C366.176 100 365.161 99.4658 364.291 98.3975C363.462 97.2697 363.048 95.8749 363.048 94.213V62.7854C363.048 61.3609 362.861 60.1738 362.488 59.2242C362.115 58.2152 361.701 57.4436 361.245 56.9094C360.79 56.3158 360.313 55.9004 359.816 55.663C359.319 55.3662 358.822 55.2178 358.325 55.2178C357.827 55.2178 357.33 55.3662 356.833 55.663C356.377 55.9004 355.921 56.3158 355.466 56.9094C355.01 57.4436 354.596 58.2152 354.223 59.2242C353.85 60.1738 353.643 61.3609 353.601 62.7854V94.213C353.353 97.7742 351.986 99.7032 349.5 100C348.34 100 347.325 99.4658 346.454 98.3975C345.626 97.2697 345.212 95.8749 345.212 94.213V62.7854C345.212 61.3609 345.025 60.1738 344.652 59.2242C344.279 58.2152 343.865 57.4436 343.409 56.9094C342.954 56.3158 342.477 55.9004 341.98 55.663C341.483 55.3662 340.986 55.2178 340.488 55.2178C339.991 55.2178 339.494 55.3662 338.997 55.663C338.541 55.9004 338.085 56.3158 337.63 56.9094C337.174 57.4436 336.76 58.2152 336.387 59.2242C336.014 60.1738 335.807 61.3609 335.765 62.7854V94.213C335.558 97.7742 334.212 99.7032 331.726 100C330.566 100 329.55 99.4658 328.68 98.3975C327.852 97.2697 327.438 95.8749 327.438 94.213V62.0731C327.52 58.868 328.038 56.1081 328.991 53.7933C329.944 51.4785 331.063 49.6386 332.347 48.2734C333.631 46.849 334.957 45.7806 336.325 45.0684C337.733 44.3561 339.142 44 340.55 44Z" fill="#518CCA"/>
<defs>
<filter id="filter0_d_368_1125" x="44" y="45.4082" width="64" height="77" filterUnits="userSpaceOnUse" color-interpolation-filters="sRGB">
<feFlood flood-opacity="0" result="BackgroundImageFix"/>
<feColorMatrix in="SourceAlpha" type="matrix" values="0 0 0 0 0 0 0 0 0 0 0 0 0 0 0 0 0 0 127 0" result="hardAlpha"/>
<feOffset dy="4"/>
<feGaussianBlur stdDeviation="2"/>
<feComposite in2="hardAlpha" operator="out"/>
<feColorMatrix type="matrix" values="0 0 0 0 0 0 0 0 0 0 0 0 0 0 0 0 0 0 0.25 0"/>
<feBlend mode="normal" in2="BackgroundImageFix" result="effect1_dropShadow_368_1125"/>
<feBlend mode="normal" in="SourceGraphic" in2="effect1_dropShadow_368_1125" result="shape"/>
</filter>
<filter id="filter1_d_368_1125" x="22.8159" y="45" width="107.264" height="77.4082" filterUnits="userSpaceOnUse" color-interpolation-filters="sRGB">
<feFlood flood-opacity="0" result="BackgroundImageFix"/>
<feColorMatrix in="SourceAlpha" type="matrix" values="0 0 0 0 0 0 0 0 0 0 0 0 0 0 0 0 0 0 127 0" result="hardAlpha"/>
<feOffset dy="4"/>
<feGaussianBlur stdDeviation="2"/>
<feComposite in2="hardAlpha" operator="out"/>
<feColorMatrix type="matrix" values="0 0 0 0 0 0 0 0 0 0 0 0 0 0 0 0 0 0 0.25 0"/>
<feBlend mode="normal" in2="BackgroundImageFix" result="effect1_dropShadow_368_1125"/>
<feBlend mode="normal" in="SourceGraphic" in2="effect1_dropShadow_368_1125" result="shape"/>
</filter>
<filter id="filter2_d_368_1125" x="0" y="0" width="152" height="152" filterUnits="userSpaceOnUse" color-interpolation-filters="sRGB">
<feFlood flood-opacity="0" result="BackgroundImageFix"/>
<feColorMatrix in="SourceAlpha" type="matrix" values="0 0 0 0 0 0 0 0 0 0 0 0 0 0 0 0 0 0 127 0" result="hardAlpha"/>
<feOffset dy="4"/>
<feGaussianBlur stdDeviation="2"/>
<feComposite in2="hardAlpha" operator="out"/>
<feColorMatrix type="matrix" values="0 0 0 0 1 0 0 0 0 1 0 0 0 0 1 0 0 0 0.25 0"/>
<feBlend mode="normal" in2="BackgroundImageFix" result="effect1_dropShadow_368_1125"/>
<feBlend mode="normal" in="SourceGraphic" in2="effect1_dropShadow_368_1125" result="shape"/>
</filter>
</defs>
</svg>
